<?xml version="1.0" encoding="UTF-8" standalone="no"?>
<svg width="312px" height="154px" viewBox="0 0 312 154" version="1.1" xmlns="http://www.w3.org/2000/svg" xmlns:xlink="http://www.w3.org/1999/xlink" xmlns:sketch="http://www.bohemiancoding.com/sketch/ns">
    <title>logo</title>
    <description>Created with Sketch (http://www.bohemiancoding.com/sketch)</description>
    <defs>
        <linearGradient x1="14.3817833%" y1="0%" x2="70.9124719%" y2="92.6055656%" id="linearGradient-1">
            <stop stop-color="#E1B37B" offset="0%"></stop>
            <stop stop-color="#CB9E68" offset="100%"></stop>
        </linearGradient>
        <radialGradient cx="35.2382812%" cy="30.4824219%" fx="35.2382812%" fy="30.4824219%" r="66.8253541%" id="radialGradient-2">
            <stop stop-color="#F27806" offset="0%"></stop>
            <stop stop-color="#B94000" offset="100%"></stop>
        </radialGradient>
    </defs>
    <g id="Page-1" stroke="none" stroke-width="1" fill="none" fill-rule="evenodd" sketch:type="MSPage">
        <g id="Logo" sketch:type="MSLayerGroup" transform="translate(1.000000, 2.000000)">
            <path d="M-0.0966796875,22.6850586 L56.6503906,82.9082031 L68.258461,82.9082031 L68.2584585,116.823944 L82.9707158,116.823944 L82.9707158,147.235275 C82.9707158,147.235275 103.677022,141.867445 113.794434,139.976419 C122.838387,138.286032 140.454812,136.491037 140.454812,136.491037 L155,152 L167.58641,136.491037 C167.58641,136.491037 189.05438,138.222609 199.445207,139.976419 C210.27323,141.804021 231.24296,147.235275 231.24296,147.235275 L231.24296,116.823944 L244.119064,116.823944 L244.119064,82.9082031 L251.205078,82.9082031 L310.217773,23.4863281 L-0.0966796875,22.6850586 Z" id="Base-Under" fill="#008CBA" sketch:type="MSShapeGroup"></path>
            <path d="M236.102539,25.4858398 L257.046875,0.40625 L154.838379,0.40625 L53.2324219,0.40625 L72.8623047,25.4858398 L11.6762695,24.7265625 L60.3808594,75.3974609 L75.7421875,75.3974609 L75.7421875,110.073242 L89.1577148,110.073242 L89.1577148,137.906738 C89.1577148,137.906738 108.038979,132.993915 117.264648,131.263184 C125.511472,129.716083 141.575195,128.073242 141.575195,128.073242 L154.838379,142.267578 L166.31543,128.073242 C166.31543,128.073242 185.891225,129.658036 195.366211,131.263184 C205.239858,132.935868 224.361328,137.906738 224.361328,137.906738 L224.361328,110.073242 L236.102539,110.073242 L236.102539,75.3974609 L248.842773,75.3974609 L298.000488,25.4858398 L236.102539,25.4858398 Z" id="Base" stroke="#B87331" stroke-width="2" fill="#052044" sketch:type="MSShapeGroup"></path>
            <path d="M36.0783691,41 L273.814453,41 L283,32 L27,32 L36.0783691,41 Z M49.191569,54 L260.546441,54 L270.752604,44 L39.1044922,44 L49.191569,54 Z M62.3047689,67 L247.278429,67 L257.484592,57 L52.2176921,57 L62.3047689,67 Z" id="Rectangle-6" fill="#1D93D4" sketch:type="MSShapeGroup"></path>
            <path d="M71.0732422,17 L237.573242,17 L154.851074,137.625 L71.0732422,17 Z" id="Triangle-1" stroke="#846948" stroke-width="2" fill="url(#linearGradient-1)" sketch:type="MSShapeGroup"></path>
            <g id="Group" transform="translate(69.000000, 16.000000)" stroke="#846948" stroke-width="2" sketch:type="MSShapeGroup">
                <path d="M0.240234322,0 L37.0154291,51.90625 L37.0154291,0 L0.240234322,0 Z" id="Rectangle-11"></path>
                <path d="M66.943141,1 L66.943141,96.1410537 L85.6845694,122.9259 L101.858806,100.1497 L101.858805,1 L66.943141,1 Z" id="Rectangle-11"></path>
                <path d="M132.784107,1 L132.784107,53.2137429 L170.119629,1 L132.784107,1 Z" id="Rectangle-11"></path>
            </g>
            <g id="Top-Stars" transform="translate(74.000000, 3.000000)" stroke="#E1934A" fill="#FFFFFF" sketch:type="MSShapeGroup">
                <polygon id="Star-1" points="5.99999987 8.25 2.47328877 9.94959366 3.14683049 6.34979684 0.29366086 3.80040665 4.23664481 3.27520289 6.00000007 6.10622664e-16 7.76335641 3.2752037 11.7063401 3.80040927 8.85316927 6.34979753 9.52671112 9.94959373 "></polygon>
                <polygon id="Star-1" points="24.9999999 8.25 21.4732888 9.94959366 22.1468305 6.34979684 19.2936609 3.80040665 23.2366448 3.27520289 25.0000001 6.10622664e-16 26.7633564 3.2752037 30.7063401 3.80040927 27.8531693 6.34979753 28.5267111 9.94959373 "></polygon>
                <polygon id="Star-1" points="42.9999999 8.25 39.4732888 9.94959366 40.1468305 6.34979684 37.2936609 3.80040665 41.2366448 3.27520289 43.0000001 6.10622664e-16 44.7633564 3.2752037 48.7063401 3.80040927 45.8531693 6.34979753 46.5267111 9.94959373 "></polygon>
                <polygon id="Star-1" points="61.9999999 8.25 58.4732888 9.94959366 59.1468305 6.34979684 56.2936609 3.80040665 60.2366448 3.27520289 62.0000001 6.10622664e-16 63.7633564 3.2752037 67.7063401 3.80040927 64.8531693 6.34979753 65.5267111 9.94959373 "></polygon>
                <polygon id="Star-1" points="99.9999999 8.25 96.4732888 9.94959366 97.1468305 6.34979684 94.2936609 3.80040665 98.2366448 3.27520289 100 6.10622664e-16 101.763356 3.2752037 105.70634 3.80040927 102.853169 6.34979753 103.526711 9.94959373 "></polygon>
                <polygon id="Star-1" points="80.9999999 8.25 77.4732888 9.94959366 78.1468305 6.34979684 75.2936609 3.80040665 79.2366448 3.27520289 81.0000001 6.10622664e-16 82.7633564 3.2752037 86.7063401 3.80040927 83.8531693 6.34979753 84.5267111 9.94959373 "></polygon>
                <polygon id="Star-1" points="120 8.25 116.473289 9.94959366 117.14683 6.34979684 114.293661 3.80040665 118.236645 3.27520289 120 6.10622664e-16 121.763356 3.2752037 125.70634 3.80040927 122.853169 6.34979753 123.526711 9.94959373 "></polygon>
                <polygon id="Star-1" points="138 8.25 134.473289 9.94959366 135.14683 6.34979684 132.293661 3.80040665 136.236645 3.27520289 138 6.10622664e-16 139.763356 3.2752037 143.70634 3.80040927 140.853169 6.34979753 141.526711 9.94959373 "></polygon>
                <polygon id="Star-1" points="157 8.25 153.473289 9.94959366 154.14683 6.34979684 151.293661 3.80040665 155.236645 3.27520289 157 6.10622664e-16 158.763356 3.2752037 162.70634 3.80040927 159.853169 6.34979753 160.526711 9.94959373 "></polygon>
            </g>
        </g>
        <path d="M156,108.305664 C135.096029,108.305665 96.2324219,113.150391 96.2324219,113.150391 L96.2324219,132.147461 C96.2324219,132.147461 134.981771,123.370117 156,123.370117 C176.981771,123.370117 219,132.147461 219,132.147461 L219,113.150391 C219,113.150391 177.096029,108.305664 156,108.305664 Z" id="Rectangle-8" stroke="#E0E0E0" stroke-width="2" fill="#FFFFFF" sketch:type="MSShapeGroup"></path>
        <rect id="Rectangle-7" stroke="#E0E0E0" stroke-width="2" fill="#FFFFFF" sketch:type="MSShapeGroup" x="83" y="78.388916" width="147" height="26.611084"></rect>
        <g id="HOT" sketch:type="MSLayerGroup" transform="translate(90.000000, 24.000000)">
            <path d="M94,3 L94,15.3376465 L100.259033,15.3376465 L100.259033,12.1669922 L108.124512,12.1669922 L108.124512,39.7036133 L106.022949,39.7036133 L106.022949,50 L119.83252,50 L119.83252,39.7036133 L117.860352,39.7036133 L117.860352,12.1669922 L125.800537,12.1669922 L125.800537,15.3376465 L132,15.3376465 L132,3 L94,3 Z" id="Rectangle-9" stroke="#000000" stroke-width="2" fill="#FFFFFF" sketch:type="MSShapeGroup"></path>
            <circle id="Oval-1" stroke="#FA8520" fill="url(#radialGradient-2)" sketch:type="MSShapeGroup" cx="66" cy="26" r="25"></circle>
            <path d="M21.3603516,3 L21.3603516,12.1669922 L23.8603516,12.1669922 L23.8603516,20.4912109 L13.8505859,20.4912109 L13.8505859,12.1669922 L16.5087891,12.1669922 L16.5087891,3 L0,3 L0,12.1669922 L2.45800781,12.1669922 L2.45800781,39.7036133 L0,39.7036133 L0,50 L16.5087891,50 L16.5087891,39.7036133 L13.8505859,39.7036133 L13.8505859,31.222168 L23.8603516,31.222168 L23.8603516,39.7036133 L21.3603516,39.7036133 L21.3603516,50 L38,50 L38,39.7036133 L35.175293,39.7036133 L35.175293,12.1669922 L38,12.1669922 L38,3 L21.3603516,3 Z" id="Rectangle-9" stroke="#000000" stroke-width="2" fill="#FFFFFF" sketch:type="MSShapeGroup"></path>
            <g id="Ball-Lines" transform="translate(41.000000, 0.000000)" sketch:type="MSShapeGroup">
                <path d="M14.0180664,48.9165039 C14.0180664,48.9165039 35.3188463,34.4770508 35.3188477,2.93994141" id="Path-2" stroke="#000000"></path>
                <path d="M0.40234375,18.9858398 C0.40234375,18.9858398 29.5917975,14.7080075 49.5361328,32.8750003" id="Path-3" stroke="#000000"></path>
                <path d="M23.3417969,0.453613281 C23.3417969,0.453613281 24.8325195,18.8515624 47.5039062,14.0415039" id="Path-4" stroke="#000000"></path>
                <path d="M6.33789062,43.6015624 C6.33789062,43.6015624 10.7080073,42.6757808 10.7080078,39.0043941 C10.7080085,35.3330074 11.4142212,32.6851983 13.0507812,30.6108398 C15.7852798,27.1448312 30.3124779,29.5885216 38.9609375,36.5712339 C41.6445367,38.7379551 40.9500927,41.0859745 42.7587891,44.1572264" id="Path-5" stroke="#000000"></path>
                <circle id="Oval-1" stroke="#FA8520" cx="25" cy="26" r="25"></circle>
            </g>
        </g>
        <path d="M96,94.6617293 L102.693465,94.3261738 C102.838413,95.1961369 103.133482,95.8589559 103.578679,96.3146509 C104.30342,97.0520482 105.338749,97.4207413 106.684696,97.4207413 C107.688979,97.4207413 108.462887,97.2322521 109.006443,96.8552681 C109.549998,96.4782841 109.821772,96.0412378 109.821772,95.544116 C109.821772,95.0718504 109.56294,94.6493032 109.045268,94.2764619 C108.527596,93.9036206 107.326615,93.5514979 105.442289,93.2200834 C102.356964,92.6649641 100.156892,91.9275779 98.8420048,91.0079027 C97.5167646,90.0882274 96.8541544,88.9158662 96.8541544,87.4907839 C96.8541544,86.5545379 97.1932245,85.6700887 97.8713747,84.8374098 C98.549525,84.0047308 99.5693234,83.350197 100.930801,82.8737886 C102.292278,82.3973803 104.158457,82.1591797 106.529395,82.1591797 C109.438711,82.1591797 111.656902,82.5920834 113.184034,83.4579038 C114.711167,84.3237242 115.619667,85.701145 115.909564,87.5902077 L109.278219,87.9009072 C109.102211,87.0806564 108.732081,86.4841192 108.167818,86.1112779 C107.603556,85.7384366 106.824471,85.5520187 105.830541,85.5520187 C105.012619,85.5520187 104.396599,85.6907964 103.982462,85.9683561 C103.568324,86.2459157 103.361258,86.5835392 103.361258,86.9812366 C103.361258,87.2712243 103.532087,87.5322093 103.873751,87.7641995 C104.205061,88.004475 104.991911,88.2281764 106.234323,88.4353105 C109.309295,88.9655737 111.511956,89.5020429 112.842373,90.0447341 C114.17279,90.5874253 115.140822,91.260601 115.746498,92.0642811 C116.352174,92.8679613 116.655008,93.7669097 116.655008,94.7611532 C116.655008,95.9293893 116.251229,97.0064703 115.443661,97.9924284 C114.636093,98.9783866 113.507585,99.7261293 112.058104,100.235679 C110.608622,100.745229 108.781268,101 106.575985,101 C102.703799,101 100.022298,100.403463 98.5314032,99.2103706 C97.040508,98.0172784 96.1967153,96.5010798 96,94.6617293 Z M120.226926,82.4698792 L127.262053,82.4698792 L127.262053,88.8454339 L134.949443,88.8454339 L134.949443,82.4698792 L142.01563,82.4698792 L142.01563,100.6893 L134.949443,100.6893 L134.949443,93.3195073 L127.262053,93.3195073 L127.262053,100.6893 L120.226926,100.6893 L120.226926,82.4698792 Z M145.804969,91.5920178 C145.804969,88.6175727 146.840298,86.3018486 148.910985,84.644776 C150.981673,82.9877035 153.865063,82.1591797 157.56124,82.1591797 C161.350599,82.1591797 164.270225,82.9732044 166.320206,84.6012781 C168.370187,86.2293518 169.395162,88.5098637 169.395162,91.442882 C169.395162,93.5722202 168.947383,95.3183342 168.05181,96.6812763 C167.156238,98.0442185 165.862077,99.104729 164.16929,99.8628397 C162.476503,100.62095 160.367021,101 157.840782,101 C155.273129,101 153.148118,100.672733 151.465684,100.018189 C149.78325,99.3636458 148.419205,98.327991 147.373507,96.911194 C146.32781,95.494397 145.804969,93.721356 145.804969,91.5920178 Z M152.840096,91.6168738 C152.840096,93.4562243 153.267169,94.7777198 154.121328,95.5814 C154.975486,96.3850801 156.137642,96.7869142 157.607831,96.7869142 C159.119433,96.7869142 160.289354,96.3933654 161.117629,95.6062559 C161.945904,94.8191465 162.360035,93.4065133 162.360035,91.3683142 C162.360035,89.6532441 161.927786,88.4001018 161.063274,87.6088497 C160.198762,86.8175976 159.026252,86.4219774 157.54571,86.4219774 C156.127289,86.4219774 154.988428,86.8238115 154.129093,87.6274917 C153.269757,88.4311718 152.840096,89.7609526 152.840096,91.6168738 Z M171.584903,82.4698792 L192.969825,82.4698792 L192.969825,86.9688086 L185.794927,86.9688086 L185.794927,100.6893 L178.759801,100.6893 L178.759801,86.9688086 L171.584903,86.9688086 L171.584903,82.4698792 Z M194.926615,94.6617293 L201.62008,94.3261738 C201.765028,95.1961369 202.060097,95.8589559 202.505294,96.3146509 C203.230035,97.0520482 204.265363,97.4207413 205.611311,97.4207413 C206.615594,97.4207413 207.389502,97.2322521 207.933058,96.8552681 C208.476613,96.4782841 208.748387,96.0412378 208.748387,95.544116 C208.748387,95.0718504 208.489555,94.6493032 207.971883,94.2764619 C207.454211,93.9036206 206.25323,93.5514979 204.368904,93.2200834 C201.283579,92.6649641 199.083506,91.9275779 197.76862,91.0079027 C196.44338,90.0882274 195.780769,88.9158662 195.780769,87.4907839 C195.780769,86.5545379 196.119839,85.6700887 196.79799,84.8374098 C197.47614,84.0047308 198.495938,83.350197 199.857416,82.8737886 C201.218893,82.3973803 203.085072,82.1591797 205.45601,82.1591797 C208.365326,82.1591797 210.583517,82.5920834 212.110649,83.4579038 C213.637782,84.3237242 214.546282,85.701145 214.836179,87.5902077 L208.204834,87.9009072 C208.028826,87.0806564 207.658696,86.4841192 207.094433,86.1112779 C206.530171,85.7384366 205.751086,85.5520187 204.757156,85.5520187 C203.939234,85.5520187 203.323214,85.6907964 202.909076,85.9683561 C202.494939,86.2459157 202.287873,86.5835392 202.287873,86.9812366 C202.287873,87.2712243 202.458702,87.5322093 202.800366,87.7641995 C203.131676,88.004475 203.918526,88.2281764 205.160938,88.4353105 C208.23591,88.9655737 210.438571,89.5020429 211.768988,90.0447341 C213.099405,90.5874253 214.067437,91.260601 214.673113,92.0642811 C215.278789,92.8679613 215.581622,93.7669097 215.581622,94.7611532 C215.581622,95.9293893 215.177844,97.0064703 214.370276,97.9924284 C213.562708,98.9783866 212.4342,99.7261293 210.984719,100.235679 C209.535237,100.745229 207.707882,101 205.5026,101 C201.630414,101 198.948913,100.403463 197.458018,99.2103706 C195.967123,98.0172784 195.12333,96.5010798 194.926615,94.6617293 Z" id="SHOTS" stroke="#052044" stroke-width="2" fill="#008CBA" sketch:type="MSShapeGroup"></path>
        <path d="M112.93484,126.543443 L112.652008,125.030655 L113.212299,124.925902 L114.478764,115.778355 L113.638327,115.935484 L113.355494,114.422696 L118.86503,113.392628 L119.147862,114.905416 L118.232719,115.076512 L122.699907,123.15209 L123.278875,123.043846 L123.561707,124.556633 L119.97584,125.227051 L119.693008,123.714263 L120.421387,123.578084 L119.349759,121.671552 L115.782568,122.338478 L115.490819,124.499908 L116.219199,124.363729 L116.502031,125.876517 L112.93484,126.543443 Z M118.795877,120.673341 L116.576859,116.661821 L115.957066,121.204088 L118.795877,120.673341 Z M121.415601,115.00001 L121.160867,112.69605 L130.867717,111.622826 L131.122451,113.926787 L129.592772,114.095913 L129.507165,113.321632 L127.278744,113.568014 L128.241305,122.273963 L129.034472,122.186268 L129.203598,123.715947 L125.426614,124.133543 L125.257487,122.603865 L126.050654,122.516169 L125.088093,113.81022 L122.840787,114.05869 L122.926395,114.832972 L121.415601,115.00001 Z M133.582094,123.154506 L133.454585,121.620797 L134.249841,121.554681 L133.524144,112.825796 L132.728888,112.891911 L132.601379,111.358202 L136.36938,111.04494 L136.496888,112.578649 L135.701632,112.644765 L135.973965,115.920464 L140.025986,115.583589 L139.753653,112.30789 L138.939461,112.37558 L138.811953,110.841871 L142.617823,110.525461 L142.745331,112.059169 L141.93114,112.126859 L142.656838,120.855745 L143.471029,120.788055 L143.598537,122.321764 L139.792667,122.638174 L139.665159,121.104465 L140.47935,121.036776 L140.175533,117.382383 L136.123512,117.719258 L136.427329,121.37365 L137.222586,121.307535 L137.350094,122.841244 L133.582094,123.154506 Z M144.690238,122.187907 L144.601113,120.65149 L145.397774,120.605277 L144.890532,111.860977 L144.093871,111.90719 L144.004746,110.370773 L147.7794,110.151811 L147.868525,111.688229 L147.071865,111.734442 L147.579107,120.478742 L151.429634,120.255379 L151.384521,119.477686 L152.920939,119.388561 L153.055176,121.702671 L144.690238,122.187907 Z M154.24913,121.609045 L154.257424,120.070067 L155.055412,120.074368 L155.102614,111.315495 L154.304626,111.311194 L154.312919,109.772217 L162.615799,109.816962 L162.604638,111.887931 L161.08466,111.87974 L161.087527,111.347748 L157.287582,111.32727 L157.268026,114.956217 L159.262997,114.966968 L159.265864,114.434976 L160.804841,114.44327 L160.791019,117.008232 L159.252041,116.999939 L159.254805,116.486946 L157.259834,116.476195 L157.24038,120.086143 L161.040325,120.106621 L161.043192,119.574628 L162.56317,119.58282 L162.552009,121.65379 L154.24913,121.609045 Z M164,112.314037 L164.135494,110 L173.884796,110.570852 L173.749302,112.884889 L172.212933,112.79493 L172.258468,112.017262 L170.020302,111.88621 L169.508311,120.630234 L170.304947,120.676879 L170.214988,122.213248 L166.421485,121.991126 L166.511444,120.454757 L167.30808,120.501403 L167.82007,111.75738 L165.562936,111.625217 L165.517401,112.402885 L164,112.314037 Z M174.399994,122.76596 L174.568351,121.236197 L175.361561,121.323493 L176.31974,112.61706 L175.526529,112.529764 L175.694886,111 L179.453195,111.413617 L179.284838,112.943381 L178.491627,112.856085 L177.533448,121.562518 L178.326659,121.649814 L178.158302,123.179578 L174.399994,122.76596 Z M179.600006,121.253469 L180.624593,112.975637 L182.574075,111.455595 L187.68408,112.088085 L189.204123,114.037567 L188.970732,115.923178 L186.783423,115.652444 L186.942129,114.370229 L186.25053,113.461392 L183.629531,113.136978 L182.737216,113.849767 L181.859666,120.939664 L182.553598,121.829645 L185.174598,122.154058 L186.064578,121.460126 L186.213949,120.253335 L188.401257,120.524068 L188.179536,122.315399 L186.230054,123.835441 L181.120048,123.202951 L179.600006,121.253469 Z M190,122.63166 L190.215896,121.184678 L192.395766,121.509924 L192.266789,122.374355 L192.93829,123.28138 L195.550375,123.671114 L196.4574,122.999613 L196.749,121.045247 L196.077498,120.138223 L192.225143,119.563434 L190.757039,117.557826 L191.230889,114.381982 L193.217704,112.911074 L198.310331,113.670916 L199.781239,115.657732 L199.554127,117.179882 L197.374258,116.854636 L197.511646,115.933829 L196.842948,115.008013 L194.230863,114.618278 L193.321035,115.308571 L193.026631,117.281729 L193.692525,118.226338 L197.54488,118.801126 L199.015789,120.787942 L198.55035,123.90741 L196.563534,125.378319 L191.470908,124.618476 L190,122.63166 Z" id="athletics" fill="#E46B05" sketch:type="MSShapeGroup"></path>
    </g>
</svg>